<svg width="1200" height="2410" xmlns="http://www.w3.org/2000/svg">
      <defs>
        <style>
          .component { cursor: pointer; }
          .component:hover { opacity: 0.7; }
          .connection { stroke: #333; stroke-width: 3; }
          .positive-connection { stroke: #dc2626; stroke-width: 3; }
          .negative-connection { stroke: #000000; stroke-width: 3; }
          .busbar-connection { stroke: #1f2937; stroke-width: 4; }
          .dc-connection { stroke: #059669; stroke-width: 3; }
          .label { font-family: Arial, sans-serif; font-size: 12px; }
          .title { font-family: Arial, sans-serif; font-size: 16px; font-weight: bold; }
        </style>
      </defs>
      <rect width="100%" height="100%" fill="white"/>
      <g class="diagram"><text x="600" y="30" text-anchor="middle" class="title">Electrical Single Line Diagram</text><line x1="70" y1="590" x2="250" y2="590" class="busbar-connection"/><path d="M 450 186 L 296 186 L 296 586 L 330 586" fill="none" stroke="#dc2626" stroke-width="3" class="positive-connection"/><path d="M 450 194 L 304 194 L 304 594 L 330 594" fill="none" stroke="#000000" stroke-width="3" class="negative-connection"/><path d="M 505 266 L 456 266 L 456 186 L 490 186" fill="none" stroke="#dc2626" stroke-width="3" class="positive-connection"/><path d="M 505 274 L 464 274 L 464 194 L 490 194" fill="none" stroke="#000000" stroke-width="3" class="negative-connection"/><path d="M 615 266 L 456 266 L 456 186 L 490 186" fill="none" stroke="#dc2626" stroke-width="3" class="positive-connection"/><path d="M 615 274 L 464 274 L 464 194 L 490 194" fill="none" stroke="#000000" stroke-width="3" class="negative-connection"/><path d="M 450 396 L 296 396 L 296 586 L 330 586" fill="none" stroke="#dc2626" stroke-width="3" class="positive-connection"/><path d="M 450 404 L 304 404 L 304 594 L 330 594" fill="none" stroke="#000000" stroke-width="3" class="negative-connection"/><path d="M 505 476 L 456 476 L 456 396 L 490 396" fill="none" stroke="#dc2626" stroke-width="3" class="positive-connection"/><path d="M 505 484 L 464 484 L 464 404 L 490 404" fill="none" stroke="#000000" stroke-width="3" class="negative-connection"/><path d="M 615 476 L 456 476 L 456 396 L 490 396" fill="none" stroke="#dc2626" stroke-width="3" class="positive-connection"/><path d="M 615 484 L 464 484 L 464 404 L 490 404" fill="none" stroke="#000000" stroke-width="3" class="negative-connection"/><path d="M 725 476 L 456 476 L 456 396 L 490 396" fill="none" stroke="#dc2626" stroke-width="3" class="positive-connection"/><path d="M 725 484 L 464 484 L 464 404 L 490 404" fill="none" stroke="#000000" stroke-width="3" class="negative-connection"/><path d="M 450 606 L 296 606 L 296 586 L 330 586" fill="none" stroke="#dc2626" stroke-width="3" class="positive-connection"/><path d="M 450 614 L 304 614 L 304 594 L 330 594" fill="none" stroke="#000000" stroke-width="3" class="negative-connection"/><path d="M 505 686 L 456 686 L 456 606 L 490 606" fill="none" stroke="#dc2626" stroke-width="3" class="positive-connection"/><path d="M 505 694 L 464 694 L 464 614 L 490 614" fill="none" stroke="#000000" stroke-width="3" class="negative-connection"/><path d="M 615 686 L 456 686 L 456 606 L 490 606" fill="none" stroke="#dc2626" stroke-width="3" class="positive-connection"/><path d="M 615 694 L 464 694 L 464 614 L 490 614" fill="none" stroke="#000000" stroke-width="3" class="negative-connection"/><path d="M 725 686 L 456 686 L 456 606 L 490 606" fill="none" stroke="#dc2626" stroke-width="3" class="positive-connection"/><path d="M 725 694 L 464 694 L 464 614 L 490 614" fill="none" stroke="#000000" stroke-width="3" class="negative-connection"/><path d="M 450 816 L 296 816 L 296 586 L 330 586" fill="none" stroke="#dc2626" stroke-width="3" class="positive-connection"/><path d="M 450 824 L 304 824 L 304 594 L 330 594" fill="none" stroke="#000000" stroke-width="3" class="negative-connection"/><path d="M 505 896 L 456 896 L 456 816 L 490 816" fill="none" stroke="#dc2626" stroke-width="3" class="positive-connection"/><path d="M 505 904 L 464 904 L 464 824 L 490 824" fill="none" stroke="#000000" stroke-width="3" class="negative-connection"/><path d="M 615 896 L 456 896 L 456 816 L 490 816" fill="none" stroke="#dc2626" stroke-width="3" class="positive-connection"/><path d="M 615 904 L 464 904 L 464 824 L 490 824" fill="none" stroke="#000000" stroke-width="3" class="negative-connection"/><path d="M 725 896 L 456 896 L 456 816 L 490 816" fill="none" stroke="#dc2626" stroke-width="3" class="positive-connection"/><path d="M 725 904 L 464 904 L 464 824 L 490 824" fill="none" stroke="#000000" stroke-width="3" class="negative-connection"/><line x1="70" y1="1670" x2="250" y2="1670" class="busbar-connection"/><path d="M 450 1176 L 296 1176 L 296 1666 L 330 1666" fill="none" stroke="#dc2626" stroke-width="3" class="positive-connection"/><path d="M 450 1184 L 304 1184 L 304 1674 L 330 1674" fill="none" stroke="#000000" stroke-width="3" class="negative-connection"/><path d="M 505 1256 L 456 1256 L 456 1176 L 490 1176" fill="none" stroke="#dc2626" stroke-width="3" class="positive-connection"/><path d="M 505 1264 L 464 1264 L 464 1184 L 490 1184" fill="none" stroke="#000000" stroke-width="3" class="negative-connection"/><path d="M 615 1256 L 456 1256 L 456 1176 L 490 1176" fill="none" stroke="#dc2626" stroke-width="3" class="positive-connection"/><path d="M 615 1264 L 464 1264 L 464 1184 L 490 1184" fill="none" stroke="#000000" stroke-width="3" class="negative-connection"/><path d="M 725 1256 L 456 1256 L 456 1176 L 490 1176" fill="none" stroke="#dc2626" stroke-width="3" class="positive-connection"/><path d="M 725 1264 L 464 1264 L 464 1184 L 490 1184" fill="none" stroke="#000000" stroke-width="3" class="negative-connection"/><path d="M 450 1386 L 296 1386 L 296 1666 L 330 1666" fill="none" stroke="#dc2626" stroke-width="3" class="positive-connection"/><path d="M 450 1394 L 304 1394 L 304 1674 L 330 1674" fill="none" stroke="#000000" stroke-width="3" class="negative-connection"/><path d="M 505 1466 L 456 1466 L 456 1386 L 490 1386" fill="none" stroke="#dc2626" stroke-width="3" class="positive-connection"/><path d="M 505 1474 L 464 1474 L 464 1394 L 490 1394" fill="none" stroke="#000000" stroke-width="3" class="negative-connection"/><path d="M 615 1466 L 456 1466 L 456 1386 L 490 1386" fill="none" stroke="#dc2626" stroke-width="3" class="positive-connection"/><path d="M 615 1474 L 464 1474 L 464 1394 L 490 1394" fill="none" stroke="#000000" stroke-width="3" class="negative-connection"/><path d="M 725 1466 L 456 1466 L 456 1386 L 490 1386" fill="none" stroke="#dc2626" stroke-width="3" class="positive-connection"/><path d="M 725 1474 L 464 1474 L 464 1394 L 490 1394" fill="none" stroke="#000000" stroke-width="3" class="negative-connection"/><path d="M 450 1596 L 296 1596 L 296 1666 L 330 1666" fill="none" stroke="#dc2626" stroke-width="3" class="positive-connection"/><path d="M 450 1604 L 304 1604 L 304 1674 L 330 1674" fill="none" stroke="#000000" stroke-width="3" class="negative-connection"/><path d="M 505 1676 L 456 1676 L 456 1596 L 490 1596" fill="none" stroke="#dc2626" stroke-width="3" class="positive-connection"/><path d="M 505 1684 L 464 1684 L 464 1604 L 490 1604" fill="none" stroke="#000000" stroke-width="3" class="negative-connection"/><path d="M 615 1676 L 456 1676 L 456 1596 L 490 1596" fill="none" stroke="#dc2626" stroke-width="3" class="positive-connection"/><path d="M 615 1684 L 464 1684 L 464 1604 L 490 1604" fill="none" stroke="#000000" stroke-width="3" class="negative-connection"/><path d="M 725 1676 L 456 1676 L 456 1596 L 490 1596" fill="none" stroke="#dc2626" stroke-width="3" class="positive-connection"/><path d="M 725 1684 L 464 1684 L 464 1604 L 490 1604" fill="none" stroke="#000000" stroke-width="3" class="negative-connection"/><path d="M 835 1676 L 456 1676 L 456 1596 L 490 1596" fill="none" stroke="#dc2626" stroke-width="3" class="positive-connection"/><path d="M 835 1684 L 464 1684 L 464 1604 L 490 1604" fill="none" stroke="#000000" stroke-width="3" class="negative-connection"/><path d="M 505 1766 L 456 1766 L 456 1596 L 490 1596" fill="none" stroke="#dc2626" stroke-width="3" class="positive-connection"/><path d="M 505 1774 L 464 1774 L 464 1604 L 490 1604" fill="none" stroke="#000000" stroke-width="3" class="negative-connection"/><path d="M 450 1896 L 296 1896 L 296 1666 L 330 1666" fill="none" stroke="#dc2626" stroke-width="3" class="positive-connection"/><path d="M 450 1904 L 304 1904 L 304 1674 L 330 1674" fill="none" stroke="#000000" stroke-width="3" class="negative-connection"/><path d="M 505 1976 L 456 1976 L 456 1896 L 490 1896" fill="none" stroke="#dc2626" stroke-width="3" class="positive-connection"/><path d="M 505 1984 L 464 1984 L 464 1904 L 490 1904" fill="none" stroke="#000000" stroke-width="3" class="negative-connection"/><path d="M 615 1976 L 456 1976 L 456 1896 L 490 1896" fill="none" stroke="#dc2626" stroke-width="3" class="positive-connection"/><path d="M 615 1984 L 464 1984 L 464 1904 L 490 1904" fill="none" stroke="#000000" stroke-width="3" class="negative-connection"/><path d="M 725 1976 L 456 1976 L 456 1896 L 490 1896" fill="none" stroke="#dc2626" stroke-width="3" class="positive-connection"/><path d="M 725 1984 L 464 1984 L 464 1904 L 490 1904" fill="none" stroke="#000000" stroke-width="3" class="negative-connection"/><path d="M 835 1976 L 456 1976 L 456 1896 L 490 1896" fill="none" stroke="#dc2626" stroke-width="3" class="positive-connection"/><path d="M 835 1984 L 464 1984 L 464 1904 L 490 1904" fill="none" stroke="#000000" stroke-width="3" class="negative-connection"/><path d="M 505 2066 L 456 2066 L 456 1896 L 490 1896" fill="none" stroke="#dc2626" stroke-width="3" class="positive-connection"/><path d="M 505 2074 L 464 2074 L 464 1904 L 490 1904" fill="none" stroke="#000000" stroke-width="3" class="negative-connection"/><g class="component" id="busbar_main">
        <rect x="50" y="110" width="20" height="2130" fill="black" stroke="black" stroke-width="2"/>
        <text x="40" y="1175" 
              text-anchor="end" 
              class="label" font-size="12">Main Bus</text>
      </g><g class="component" id="inverter_0">
        <rect x="250" y="565" width="80" height="50" fill="white" stroke="black" stroke-width="2" rx="5"/>
              <text x="40" y="20" text-anchor="middle" font-size="10" font-weight="bold">INVERTER</text>
              <text x="40" y="35" text-anchor="middle" font-size="8">AC/DC</text>
        <text x="290" y="630" 
              text-anchor="middle" 
              class="label" font-size="12">Inverter 1</text>
      </g><g class="component" id="isolator_0_0">
        <rect x="450" y="170" width="40" height="40" fill="white" stroke="black" stroke-width="2"/>
              <circle cx="20" cy="20" r="8" fill="none" stroke="black" stroke-width="2"/>
              <line x1="12" y1="20" x2="28" y2="20" stroke="black" stroke-width="2"/>
              <text x="20" y="35" text-anchor="middle" font-size="8">DC ISO</text>
        <text x="470" y="225" 
              text-anchor="middle" 
              class="label" font-size="12">DC Isolator 1-1</text>
      </g><g class="component" id="pv_0_0_0">
        <rect x="505" y="250" width="60" height="40" fill="lightblue" stroke="black" stroke-width="2"/>
              <text x="30" y="15" text-anchor="middle" font-size="8" font-weight="bold">PV STRING</text>
              <text x="30" y="28" text-anchor="middle" font-size="7">Panels</text>
        <text x="535" y="245" 
              text-anchor="middle" 
              class="label" font-size="9">Panasonic 330W HiT (12 panels)</text>
      </g><g class="component" id="pv_0_0_1">
        <rect x="615" y="250" width="60" height="40" fill="lightblue" stroke="black" stroke-width="2"/>
              <text x="30" y="15" text-anchor="middle" font-size="8" font-weight="bold">PV STRING</text>
              <text x="30" y="28" text-anchor="middle" font-size="7">Panels</text>
        <text x="645" y="245" 
              text-anchor="middle" 
              class="label" font-size="9">Panasonic 330W HiT (12 panels)</text>
      </g><g class="component" id="isolator_0_1">
        <rect x="450" y="380" width="40" height="40" fill="white" stroke="black" stroke-width="2"/>
              <circle cx="20" cy="20" r="8" fill="none" stroke="black" stroke-width="2"/>
              <line x1="12" y1="20" x2="28" y2="20" stroke="black" stroke-width="2"/>
              <text x="20" y="35" text-anchor="middle" font-size="8">DC ISO</text>
        <text x="470" y="435" 
              text-anchor="middle" 
              class="label" font-size="12">DC Isolator 1-2</text>
      </g><g class="component" id="pv_0_1_0">
        <rect x="505" y="460" width="60" height="40" fill="lightblue" stroke="black" stroke-width="2"/>
              <text x="30" y="15" text-anchor="middle" font-size="8" font-weight="bold">PV STRING</text>
              <text x="30" y="28" text-anchor="middle" font-size="7">Panels</text>
        <text x="535" y="455" 
              text-anchor="middle" 
              class="label" font-size="9">Panasonic 330W HiT (10 panels)</text>
      </g><g class="component" id="pv_0_1_1">
        <rect x="615" y="460" width="60" height="40" fill="lightblue" stroke="black" stroke-width="2"/>
              <text x="30" y="15" text-anchor="middle" font-size="8" font-weight="bold">PV STRING</text>
              <text x="30" y="28" text-anchor="middle" font-size="7">Panels</text>
        <text x="645" y="455" 
              text-anchor="middle" 
              class="label" font-size="9">Panasonic 330W HiT (10 panels)</text>
      </g><g class="component" id="pv_0_1_2">
        <rect x="725" y="460" width="60" height="40" fill="lightblue" stroke="black" stroke-width="2"/>
              <text x="30" y="15" text-anchor="middle" font-size="8" font-weight="bold">PV STRING</text>
              <text x="30" y="28" text-anchor="middle" font-size="7">Panels</text>
        <text x="755" y="455" 
              text-anchor="middle" 
              class="label" font-size="9">Panasonic 330W HiT (10 panels)</text>
      </g><g class="component" id="isolator_0_2">
        <rect x="450" y="590" width="40" height="40" fill="white" stroke="black" stroke-width="2"/>
              <circle cx="20" cy="20" r="8" fill="none" stroke="black" stroke-width="2"/>
              <line x1="12" y1="20" x2="28" y2="20" stroke="black" stroke-width="2"/>
              <text x="20" y="35" text-anchor="middle" font-size="8">DC ISO</text>
        <text x="470" y="645" 
              text-anchor="middle" 
              class="label" font-size="12">DC Isolator 1-3</text>
      </g><g class="component" id="pv_0_2_0">
        <rect x="505" y="670" width="60" height="40" fill="lightblue" stroke="black" stroke-width="2"/>
              <text x="30" y="15" text-anchor="middle" font-size="8" font-weight="bold">PV STRING</text>
              <text x="30" y="28" text-anchor="middle" font-size="7">Panels</text>
        <text x="535" y="665" 
              text-anchor="middle" 
              class="label" font-size="9">Panasonic 330W HiT (10 panels)</text>
      </g><g class="component" id="pv_0_2_1">
        <rect x="615" y="670" width="60" height="40" fill="lightblue" stroke="black" stroke-width="2"/>
              <text x="30" y="15" text-anchor="middle" font-size="8" font-weight="bold">PV STRING</text>
              <text x="30" y="28" text-anchor="middle" font-size="7">Panels</text>
        <text x="645" y="665" 
              text-anchor="middle" 
              class="label" font-size="9">Panasonic 330W HiT (10 panels)</text>
      </g><g class="component" id="pv_0_2_2">
        <rect x="725" y="670" width="60" height="40" fill="lightblue" stroke="black" stroke-width="2"/>
              <text x="30" y="15" text-anchor="middle" font-size="8" font-weight="bold">PV STRING</text>
              <text x="30" y="28" text-anchor="middle" font-size="7">Panels</text>
        <text x="755" y="665" 
              text-anchor="middle" 
              class="label" font-size="9">Panasonic 330W HiT (10 panels)</text>
      </g><g class="component" id="isolator_0_3">
        <rect x="450" y="800" width="40" height="40" fill="white" stroke="black" stroke-width="2"/>
              <circle cx="20" cy="20" r="8" fill="none" stroke="black" stroke-width="2"/>
              <line x1="12" y1="20" x2="28" y2="20" stroke="black" stroke-width="2"/>
              <text x="20" y="35" text-anchor="middle" font-size="8">DC ISO</text>
        <text x="470" y="855" 
              text-anchor="middle" 
              class="label" font-size="12">DC Isolator 1-4</text>
      </g><g class="component" id="pv_0_3_0">
        <rect x="505" y="880" width="60" height="40" fill="lightblue" stroke="black" stroke-width="2"/>
              <text x="30" y="15" text-anchor="middle" font-size="8" font-weight="bold">PV STRING</text>
              <text x="30" y="28" text-anchor="middle" font-size="7">Panels</text>
        <text x="535" y="875" 
              text-anchor="middle" 
              class="label" font-size="9">Panasonic 330W HiT (10 panels)</text>
      </g><g class="component" id="pv_0_3_1">
        <rect x="615" y="880" width="60" height="40" fill="lightblue" stroke="black" stroke-width="2"/>
              <text x="30" y="15" text-anchor="middle" font-size="8" font-weight="bold">PV STRING</text>
              <text x="30" y="28" text-anchor="middle" font-size="7">Panels</text>
        <text x="645" y="875" 
              text-anchor="middle" 
              class="label" font-size="9">Panasonic 330W HiT (10 panels)</text>
      </g><g class="component" id="pv_0_3_2">
        <rect x="725" y="880" width="60" height="40" fill="lightblue" stroke="black" stroke-width="2"/>
              <text x="30" y="15" text-anchor="middle" font-size="8" font-weight="bold">PV STRING</text>
              <text x="30" y="28" text-anchor="middle" font-size="7">Panels</text>
        <text x="755" y="875" 
              text-anchor="middle" 
              class="label" font-size="9">Panasonic 330W HiT (10 panels)</text>
      </g><g class="component" id="inverter_1">
        <rect x="250" y="1645" width="80" height="50" fill="white" stroke="black" stroke-width="2" rx="5"/>
              <text x="40" y="20" text-anchor="middle" font-size="10" font-weight="bold">INVERTER</text>
              <text x="40" y="35" text-anchor="middle" font-size="8">AC/DC</text>
        <text x="290" y="1710" 
              text-anchor="middle" 
              class="label" font-size="12">Inverter 2</text>
      </g><g class="component" id="isolator_1_0">
        <rect x="450" y="1160" width="40" height="40" fill="white" stroke="black" stroke-width="2"/>
              <circle cx="20" cy="20" r="8" fill="none" stroke="black" stroke-width="2"/>
              <line x1="12" y1="20" x2="28" y2="20" stroke="black" stroke-width="2"/>
              <text x="20" y="35" text-anchor="middle" font-size="8">DC ISO</text>
        <text x="470" y="1215" 
              text-anchor="middle" 
              class="label" font-size="12">DC Isolator 2-1</text>
      </g><g class="component" id="pv_1_0_0">
        <rect x="505" y="1240" width="60" height="40" fill="lightblue" stroke="black" stroke-width="2"/>
              <text x="30" y="15" text-anchor="middle" font-size="8" font-weight="bold">PV STRING</text>
              <text x="30" y="28" text-anchor="middle" font-size="7">Panels</text>
        <text x="535" y="1235" 
              text-anchor="middle" 
              class="label" font-size="9">Panasonic 330W HiT (12 panels)</text>
      </g><g class="component" id="pv_1_0_1">
        <rect x="615" y="1240" width="60" height="40" fill="lightblue" stroke="black" stroke-width="2"/>
              <text x="30" y="15" text-anchor="middle" font-size="8" font-weight="bold">PV STRING</text>
              <text x="30" y="28" text-anchor="middle" font-size="7">Panels</text>
        <text x="645" y="1235" 
              text-anchor="middle" 
              class="label" font-size="9">Panasonic 330W HiT (12 panels)</text>
      </g><g class="component" id="pv_1_0_2">
        <rect x="725" y="1240" width="60" height="40" fill="lightblue" stroke="black" stroke-width="2"/>
              <text x="30" y="15" text-anchor="middle" font-size="8" font-weight="bold">PV STRING</text>
              <text x="30" y="28" text-anchor="middle" font-size="7">Panels</text>
        <text x="755" y="1235" 
              text-anchor="middle" 
              class="label" font-size="9">Panasonic 330W HiT (12 panels)</text>
      </g><g class="component" id="isolator_1_1">
        <rect x="450" y="1370" width="40" height="40" fill="white" stroke="black" stroke-width="2"/>
              <circle cx="20" cy="20" r="8" fill="none" stroke="black" stroke-width="2"/>
              <line x1="12" y1="20" x2="28" y2="20" stroke="black" stroke-width="2"/>
              <text x="20" y="35" text-anchor="middle" font-size="8">DC ISO</text>
        <text x="470" y="1425" 
              text-anchor="middle" 
              class="label" font-size="12">DC Isolator 2-2</text>
      </g><g class="component" id="pv_1_1_0">
        <rect x="505" y="1450" width="60" height="40" fill="lightblue" stroke="black" stroke-width="2"/>
              <text x="30" y="15" text-anchor="middle" font-size="8" font-weight="bold">PV STRING</text>
              <text x="30" y="28" text-anchor="middle" font-size="7">Panels</text>
        <text x="535" y="1445" 
              text-anchor="middle" 
              class="label" font-size="9">Panasonic 330W HiT (12 panels)</text>
      </g><g class="component" id="pv_1_1_1">
        <rect x="615" y="1450" width="60" height="40" fill="lightblue" stroke="black" stroke-width="2"/>
              <text x="30" y="15" text-anchor="middle" font-size="8" font-weight="bold">PV STRING</text>
              <text x="30" y="28" text-anchor="middle" font-size="7">Panels</text>
        <text x="645" y="1445" 
              text-anchor="middle" 
              class="label" font-size="9">Panasonic 330W HiT (12 panels)</text>
      </g><g class="component" id="pv_1_1_2">
        <rect x="725" y="1450" width="60" height="40" fill="lightblue" stroke="black" stroke-width="2"/>
              <text x="30" y="15" text-anchor="middle" font-size="8" font-weight="bold">PV STRING</text>
              <text x="30" y="28" text-anchor="middle" font-size="7">Panels</text>
        <text x="755" y="1445" 
              text-anchor="middle" 
              class="label" font-size="9">Panasonic 330W HiT (12 panels)</text>
      </g><g class="component" id="isolator_1_2">
        <rect x="450" y="1580" width="40" height="40" fill="white" stroke="black" stroke-width="2"/>
              <circle cx="20" cy="20" r="8" fill="none" stroke="black" stroke-width="2"/>
              <line x1="12" y1="20" x2="28" y2="20" stroke="black" stroke-width="2"/>
              <text x="20" y="35" text-anchor="middle" font-size="8">DC ISO</text>
        <text x="470" y="1635" 
              text-anchor="middle" 
              class="label" font-size="12">DC Isolator 2-3</text>
      </g><g class="component" id="pv_1_2_0">
        <rect x="505" y="1660" width="60" height="40" fill="lightblue" stroke="black" stroke-width="2"/>
              <text x="30" y="15" text-anchor="middle" font-size="8" font-weight="bold">PV STRING</text>
              <text x="30" y="28" text-anchor="middle" font-size="7">Panels</text>
        <text x="535" y="1655" 
              text-anchor="middle" 
              class="label" font-size="9">Panasonic 330W HiT (12 panels)</text>
      </g><g class="component" id="pv_1_2_1">
        <rect x="615" y="1660" width="60" height="40" fill="lightblue" stroke="black" stroke-width="2"/>
              <text x="30" y="15" text-anchor="middle" font-size="8" font-weight="bold">PV STRING</text>
              <text x="30" y="28" text-anchor="middle" font-size="7">Panels</text>
        <text x="645" y="1655" 
              text-anchor="middle" 
              class="label" font-size="9">Panasonic 330W HiT (12 panels)</text>
      </g><g class="component" id="pv_1_2_2">
        <rect x="725" y="1660" width="60" height="40" fill="lightblue" stroke="black" stroke-width="2"/>
              <text x="30" y="15" text-anchor="middle" font-size="8" font-weight="bold">PV STRING</text>
              <text x="30" y="28" text-anchor="middle" font-size="7">Panels</text>
        <text x="755" y="1655" 
              text-anchor="middle" 
              class="label" font-size="9">Panasonic 330W HiT (12 panels)</text>
      </g><g class="component" id="pv_1_2_3">
        <rect x="835" y="1660" width="60" height="40" fill="lightblue" stroke="black" stroke-width="2"/>
              <text x="30" y="15" text-anchor="middle" font-size="8" font-weight="bold">PV STRING</text>
              <text x="30" y="28" text-anchor="middle" font-size="7">Panels</text>
        <text x="865" y="1655" 
              text-anchor="middle" 
              class="label" font-size="9">Panasonic 330W HiT (12 panels)</text>
      </g><g class="component" id="pv_1_2_4">
        <rect x="505" y="1750" width="60" height="40" fill="lightblue" stroke="black" stroke-width="2"/>
              <text x="30" y="15" text-anchor="middle" font-size="8" font-weight="bold">PV STRING</text>
              <text x="30" y="28" text-anchor="middle" font-size="7">Panels</text>
        <text x="535" y="1745" 
              text-anchor="middle" 
              class="label" font-size="9">Panasonic 330W HiT (12 panels)</text>
      </g><g class="component" id="isolator_1_3">
        <rect x="450" y="1880" width="40" height="40" fill="white" stroke="black" stroke-width="2"/>
              <circle cx="20" cy="20" r="8" fill="none" stroke="black" stroke-width="2"/>
              <line x1="12" y1="20" x2="28" y2="20" stroke="black" stroke-width="2"/>
              <text x="20" y="35" text-anchor="middle" font-size="8">DC ISO</text>
        <text x="470" y="1935" 
              text-anchor="middle" 
              class="label" font-size="12">DC Isolator 2-4</text>
      </g><g class="component" id="pv_1_3_0">
        <rect x="505" y="1960" width="60" height="40" fill="lightblue" stroke="black" stroke-width="2"/>
              <text x="30" y="15" text-anchor="middle" font-size="8" font-weight="bold">PV STRING</text>
              <text x="30" y="28" text-anchor="middle" font-size="7">Panels</text>
        <text x="535" y="1955" 
              text-anchor="middle" 
              class="label" font-size="9">Panasonic 330W HiT (12 panels)</text>
      </g><g class="component" id="pv_1_3_1">
        <rect x="615" y="1960" width="60" height="40" fill="lightblue" stroke="black" stroke-width="2"/>
              <text x="30" y="15" text-anchor="middle" font-size="8" font-weight="bold">PV STRING</text>
              <text x="30" y="28" text-anchor="middle" font-size="7">Panels</text>
        <text x="645" y="1955" 
              text-anchor="middle" 
              class="label" font-size="9">Panasonic 330W HiT (12 panels)</text>
      </g><g class="component" id="pv_1_3_2">
        <rect x="725" y="1960" width="60" height="40" fill="lightblue" stroke="black" stroke-width="2"/>
              <text x="30" y="15" text-anchor="middle" font-size="8" font-weight="bold">PV STRING</text>
              <text x="30" y="28" text-anchor="middle" font-size="7">Panels</text>
        <text x="755" y="1955" 
              text-anchor="middle" 
              class="label" font-size="9">Panasonic 330W HiT (12 panels)</text>
      </g><g class="component" id="pv_1_3_3">
        <rect x="835" y="1960" width="60" height="40" fill="lightblue" stroke="black" stroke-width="2"/>
              <text x="30" y="15" text-anchor="middle" font-size="8" font-weight="bold">PV STRING</text>
              <text x="30" y="28" text-anchor="middle" font-size="7">Panels</text>
        <text x="865" y="1955" 
              text-anchor="middle" 
              class="label" font-size="9">Panasonic 330W HiT (12 panels)</text>
      </g><g class="component" id="pv_1_3_4">
        <rect x="505" y="2050" width="60" height="40" fill="lightblue" stroke="black" stroke-width="2"/>
              <text x="30" y="15" text-anchor="middle" font-size="8" font-weight="bold">PV STRING</text>
              <text x="30" y="28" text-anchor="middle" font-size="7">Panels</text>
        <text x="535" y="2045" 
              text-anchor="middle" 
              class="label" font-size="9">Panasonic 330W HiT (12 panels)</text>
      </g><g class="legend">
      <text x="50" y="2330" class="label" font-weight="bold">Legend:</text>
      <line x1="50" y1="2345" x2="80" y2="2345" class="positive-connection"/>
      <text x="90" y="2350" class="label">Positive (Red)</text>
      <line x1="200" y1="2345" x2="230" y2="2345" class="negative-connection"/>
      <text x="240" y="2350" class="label">Negative (Black)</text>
      <line x1="350" y1="2345" x2="380" y2="2345" class="busbar-connection"/>
      <text x="390" y="2350" class="label">Busbar</text>
    </g></g></svg>