<svg width="1200" height="800" xmlns="http://www.w3.org/2000/svg">
      <defs>
        <style>
          .component { cursor: pointer; }
          .component:hover { opacity: 0.7; }
          .connection { stroke: #333; stroke-width: 3; }
          .positive-connection { stroke: #dc2626; stroke-width: 3; }
          .negative-connection { stroke: #000000; stroke-width: 3; }
          .busbar-connection { stroke: #1f2937; stroke-width: 4; }
          .dc-connection { stroke: #059669; stroke-width: 3; }
          .label { font-family: Arial, sans-serif; font-size: 12px; }
          .title { font-family: Arial, sans-serif; font-size: 16px; font-weight: bold; }
        </style>
      </defs>
      <rect width="100%" height="100%" fill="white"/>
      <g class="diagram"><text x="600" y="30" text-anchor="middle" class="title">Electrical Single Line Diagram</text><line x1="250" y1="177.5" x2="340" y2="175" class="busbar-connection"/><line x1="465" y1="170" x2="335" y2="175" class="positive-connection"/><line x1="475" y1="170" x2="345" y2="175" class="negative-connection"/><line x1="625" y1="170" x2="465" y2="170" class="positive-connection"/><line x1="635" y1="170" x2="475" y2="170" class="negative-connection"/><line x1="705" y1="170" x2="465" y2="170" class="positive-connection"/><line x1="715" y1="170" x2="475" y2="170" class="negative-connection"/><line x1="785" y1="170" x2="465" y2="170" class="positive-connection"/><line x1="795" y1="170" x2="475" y2="170" class="negative-connection"/><line x1="625" y1="230" x2="465" y2="170" class="positive-connection"/><line x1="635" y1="230" x2="475" y2="170" class="negative-connection"/><line x1="465" y1="390" x2="335" y2="175" class="positive-connection"/><line x1="475" y1="390" x2="345" y2="175" class="negative-connection"/><line x1="625" y1="390" x2="465" y2="390" class="positive-connection"/><line x1="635" y1="390" x2="475" y2="390" class="negative-connection"/><line x1="705" y1="390" x2="465" y2="390" class="positive-connection"/><line x1="715" y1="390" x2="475" y2="390" class="negative-connection"/><line x1="785" y1="390" x2="465" y2="390" class="positive-connection"/><line x1="795" y1="390" x2="475" y2="390" class="negative-connection"/><line x1="625" y1="450" x2="465" y2="390" class="positive-connection"/><line x1="635" y1="450" x2="475" y2="390" class="negative-connection"/><line x1="705" y1="450" x2="465" y2="390" class="positive-connection"/><line x1="715" y1="450" x2="475" y2="390" class="negative-connection"/><g class="component" id="inverter_0">
        <rect x="300" y="150" width="80" height="50" fill="white" stroke="black" stroke-width="2" rx="5"/>
              <text x="40" y="20" text-anchor="middle" font-size="10" font-weight="bold">INVERTER</text>
              <text x="40" y="35" text-anchor="middle" font-size="8">AC/DC</text>
        <text x="340" y="215" 
              text-anchor="middle" class="label">Inverter 1</text>
      </g><g class="component" id="busbar_0">
        <rect x="100" y="170" width="300" height="15" fill="black" stroke="black" stroke-width="2"/>
        <text x="250" y="200" 
              text-anchor="middle" class="label">Main Bus</text>
      </g><g class="component" id="isolator_0_0">
        <rect x="450" y="150" width="40" height="40" fill="white" stroke="black" stroke-width="2"/>
              <circle cx="20" cy="20" r="8" fill="none" stroke="black" stroke-width="2"/>
              <line x1="12" y1="20" x2="28" y2="20" stroke="black" stroke-width="2"/>
              <text x="20" y="35" text-anchor="middle" font-size="8">DC ISO</text>
        <text x="470" y="205" 
              text-anchor="middle" class="label">DC Isolator 1-1</text>
      </g><g class="component" id="pv_0_0_0">
        <rect x="600" y="150" width="60" height="40" fill="lightblue" stroke="black" stroke-width="2"/>
              <text x="30" y="15" text-anchor="middle" font-size="8" font-weight="bold">PV STRING</text>
              <text x="30" y="28" text-anchor="middle" font-size="7">Panels</text>
        <text x="630" y="205" 
              text-anchor="middle" class="label">Panasonic 330W HiT (10 panels)</text>
      </g><g class="component" id="pv_0_0_1">
        <rect x="680" y="150" width="60" height="40" fill="lightblue" stroke="black" stroke-width="2"/>
              <text x="30" y="15" text-anchor="middle" font-size="8" font-weight="bold">PV STRING</text>
              <text x="30" y="28" text-anchor="middle" font-size="7">Panels</text>
        <text x="710" y="205" 
              text-anchor="middle" class="label">Panasonic 330W HiT (10 panels)</text>
      </g><g class="component" id="pv_0_0_2">
        <rect x="760" y="150" width="60" height="40" fill="lightblue" stroke="black" stroke-width="2"/>
              <text x="30" y="15" text-anchor="middle" font-size="8" font-weight="bold">PV STRING</text>
              <text x="30" y="28" text-anchor="middle" font-size="7">Panels</text>
        <text x="790" y="205" 
              text-anchor="middle" class="label">Panasonic 330W HiT (10 panels)</text>
      </g><g class="component" id="pv_0_0_3">
        <rect x="600" y="210" width="60" height="40" fill="lightblue" stroke="black" stroke-width="2"/>
              <text x="30" y="15" text-anchor="middle" font-size="8" font-weight="bold">PV STRING</text>
              <text x="30" y="28" text-anchor="middle" font-size="7">Panels</text>
        <text x="630" y="265" 
              text-anchor="middle" class="label">Panasonic 330W HiT (10 panels)</text>
      </g><g class="component" id="isolator_0_1">
        <rect x="450" y="370" width="40" height="40" fill="white" stroke="black" stroke-width="2"/>
              <circle cx="20" cy="20" r="8" fill="none" stroke="black" stroke-width="2"/>
              <line x1="12" y1="20" x2="28" y2="20" stroke="black" stroke-width="2"/>
              <text x="20" y="35" text-anchor="middle" font-size="8">DC ISO</text>
        <text x="470" y="425" 
              text-anchor="middle" class="label">DC Isolator 1-2</text>
      </g><g class="component" id="pv_0_1_0">
        <rect x="600" y="370" width="60" height="40" fill="lightblue" stroke="black" stroke-width="2"/>
              <text x="30" y="15" text-anchor="middle" font-size="8" font-weight="bold">PV STRING</text>
              <text x="30" y="28" text-anchor="middle" font-size="7">Panels</text>
        <text x="630" y="425" 
              text-anchor="middle" class="label">Panasonic 330W HiT (10 panels)</text>
      </g><g class="component" id="pv_0_1_1">
        <rect x="680" y="370" width="60" height="40" fill="lightblue" stroke="black" stroke-width="2"/>
              <text x="30" y="15" text-anchor="middle" font-size="8" font-weight="bold">PV STRING</text>
              <text x="30" y="28" text-anchor="middle" font-size="7">Panels</text>
        <text x="710" y="425" 
              text-anchor="middle" class="label">Panasonic 330W HiT (10 panels)</text>
      </g><g class="component" id="pv_0_1_2">
        <rect x="760" y="370" width="60" height="40" fill="lightblue" stroke="black" stroke-width="2"/>
              <text x="30" y="15" text-anchor="middle" font-size="8" font-weight="bold">PV STRING</text>
              <text x="30" y="28" text-anchor="middle" font-size="7">Panels</text>
        <text x="790" y="425" 
              text-anchor="middle" class="label">Panasonic 330W HiT (10 panels)</text>
      </g><g class="component" id="pv_0_1_3">
        <rect x="600" y="430" width="60" height="40" fill="lightblue" stroke="black" stroke-width="2"/>
              <text x="30" y="15" text-anchor="middle" font-size="8" font-weight="bold">PV STRING</text>
              <text x="30" y="28" text-anchor="middle" font-size="7">Panels</text>
        <text x="630" y="485" 
              text-anchor="middle" class="label">Panasonic 330W HiT (10 panels)</text>
      </g><g class="component" id="pv_0_1_4">
        <rect x="680" y="430" width="60" height="40" fill="lightblue" stroke="black" stroke-width="2"/>
              <text x="30" y="15" text-anchor="middle" font-size="8" font-weight="bold">PV STRING</text>
              <text x="30" y="28" text-anchor="middle" font-size="7">Panels</text>
        <text x="710" y="485" 
              text-anchor="middle" class="label">Panasonic 330W HiT (10 panels)</text>
      </g><g class="legend">
      <text x="50" y="720" class="label" font-weight="bold">Legend:</text>
      <line x1="50" y1="735" x2="80" y2="735" class="positive-connection"/>
      <text x="90" y="740" class="label">Positive (Red)</text>
      <line x1="200" y1="735" x2="230" y2="735" class="negative-connection"/>
      <text x="240" y="740" class="label">Negative (Black)</text>
      <line x1="350" y1="735" x2="380" y2="735" class="busbar-connection"/>
      <text x="390" y="740" class="label">Busbar</text>
    </g></g></svg>